<?xml version="1.0" standalone="no"?>
<!DOCTYPE svg PUBLIC "-//W3C//DTD SVG 20010904//EN"
 "http://www.w3.org/TR/2001/REC-SVG-20010904/DTD/svg10.dtd">
<svg version="1.0" xmlns="http://www.w3.org/2000/svg"
 width="260.000000pt" height="260.000000pt" viewBox="0 0 260.000000 260.000000"
 preserveAspectRatio="xMidYMid meet">
<metadata>
Created by potrace 1.14, written by Peter Selinger 2001-2017
</metadata>
<g transform="translate(0.000000,260.000000) scale(0.100000,-0.100000)"
fill="#000000" stroke="none">
<path d="M0 1300 l0 -1300 1300 0 1300 0 0 1300 0 1300 -1300 0 -1300 0 0
-1300z m1209 1115 c40 -19 75 -35 77 -35 2 0 4 12 4 27 l0 27 28 -26 c15 -13
64 -50 109 -82 45 -31 100 -77 122 -102 40 -46 41 -46 50 -23 9 23 10 23 26
-15 9 -22 19 -55 23 -75 l5 -34 18 21 c17 21 17 21 28 -41 17 -97 13 -151 -14
-234 -41 -120 -14 -112 41 12 28 63 30 64 61 59 29 -6 33 -3 40 27 11 42 33
50 34 12 0 -15 14 -66 32 -113 l32 -84 70 -24 c82 -28 135 -63 194 -127 66
-72 170 -309 154 -351 -6 -16 -136 -84 -160 -84 -7 0 -13 -5 -13 -11 0 -7 12
-9 35 -5 55 11 106 -9 154 -58 38 -39 43 -48 35 -73 -4 -15 -8 -35 -8 -43 -1
-19 -87 -49 -141 -50 -22 0 -57 5 -78 11 -55 15 -101 -4 -155 -62 -28 -30 -74
-63 -125 -90 -45 -23 -92 -51 -104 -61 -12 -11 -26 -17 -32 -13 -7 4 -11 -4
-11 -20 0 -22 -3 -25 -20 -20 -13 4 -20 2 -20 -6 0 -8 -7 -5 -20 6 -17 15 -20
16 -25 2 -4 -8 -14 -13 -25 -10 -17 5 -23 -12 -31 -97 -1 -8 -7 -22 -14 -30
-7 -8 -15 -26 -18 -40 -4 -14 -25 -45 -47 -70 -22 -25 -40 -48 -40 -52 0 -14
55 -8 120 13 l65 21 65 -24 c45 -16 68 -30 77 -48 8 -16 9 -26 2 -29 -6 -2
-14 -14 -19 -27 -8 -20 -17 -24 -49 -24 -31 0 -40 -4 -46 -22 -4 -13 -7 -28
-6 -34 1 -6 -20 -19 -45 -29 -51 -19 -163 -16 -220 6 -48 18 -264 40 -331 33
-42 -5 -67 -3 -77 5 -10 8 -26 9 -55 2 -34 -7 -41 -6 -41 6 0 13 -10 15 -64 9
-52 -5 -65 -4 -70 9 -7 19 -36 19 -103 2 -48 -13 -52 -12 -56 5 -6 20 -27 22
-95 9 l-42 -8 6 33 c6 32 5 34 -21 34 -24 0 -27 3 -23 24 3 15 0 27 -8 30 -8
3 -14 14 -14 25 0 11 -8 24 -17 30 -14 7 -15 12 -5 24 10 12 -1 32 -63 113
-66 86 -73 99 -55 102 26 4 25 8 -6 49 -19 24 -21 33 -10 33 27 0 26 16 -4 64
-25 38 -27 48 -15 52 24 10 18 40 -16 79 -26 29 -28 36 -15 41 21 8 20 32 -4
79 -25 49 -25 53 0 30 35 -32 37 -11 5 68 -6 13 -3 16 10 11 14 -6 15 -2 10
30 -6 31 -5 35 9 30 21 -8 21 15 1 63 -18 43 -13 53 15 28 17 -16 20 -16 26
-2 3 8 1 31 -4 51 -7 26 -7 35 1 33 6 -1 14 13 17 31 3 18 10 32 15 32 6 0 11
9 13 20 2 14 9 20 18 16 10 -4 24 13 45 57 18 35 41 68 53 73 14 6 22 20 24
42 3 28 6 31 18 21 12 -10 20 -8 41 13 15 16 23 33 20 42 -9 22 -53 48 -105
61 l-46 12 37 7 c20 4 37 11 37 15 0 5 -21 28 -46 51 l-47 43 41 -5 c22 -3 43
-4 46 -1 7 8 -21 60 -36 67 -7 3 2 4 20 3 22 -3 36 1 39 10 3 7 17 13 32 13
14 0 38 8 52 18 44 29 89 70 89 80 0 6 -14 22 -31 36 l-31 26 56 0 c43 0 56 3
56 15 0 8 -4 15 -10 15 -5 0 -10 5 -10 11 0 6 14 9 33 7 27 -3 32 0 29 17 -3
16 -1 18 9 8 21 -21 53 -15 99 19 24 18 66 40 94 50 45 15 51 20 49 43 -2 25
0 26 37 20 33 -6 40 -3 50 15 9 17 8 26 -5 47 l-17 26 28 -7 c16 -4 62 -22
103 -41z"/>
<path d="M641 1980 c-24 -17 -53 -30 -63 -30 -12 0 -16 -4 -12 -11 5 -8 -1
-10 -20 -7 -30 6 -34 -7 -9 -34 15 -17 15 -18 0 -18 -24 0 -21 -17 3 -25 21
-7 28 -25 9 -25 -6 0 3 -16 20 -35 17 -20 34 -47 37 -60 7 -30 15 -31 45 -6
21 17 22 22 11 45 -10 22 -9 28 3 32 21 8 19 21 -5 29 -28 9 -25 23 7 27 40 5
42 28 1 28 l-33 0 39 23 c52 29 59 49 14 40 -33 -6 -33 -6 -14 15 31 36 13 43
-33 12z"/>
<path d="M1810 1869 c0 -20 60 -117 75 -123 21 -8 19 8 -11 75 -19 41 -32 59
-45 59 -11 0 -19 -5 -19 -11z"/>
<path d="M1742 1798 c-25 -42 -72 -190 -72 -228 0 -16 11 -41 24 -57 l24 -28
29 27 c18 17 41 28 67 30 28 2 44 10 58 28 18 25 18 27 -3 95 -23 77 -74 165
-94 165 -7 0 -22 -15 -33 -32z m82 -90 c36 -80 39 -102 17 -129 -19 -24 -20
-24 -54 -5 -29 15 -36 25 -39 57 -2 25 1 40 9 43 7 3 10 11 7 19 -6 18 12 67
26 67 6 0 22 -24 34 -52z"/>
<path d="M1517 1615 c-11 -7 -25 -11 -32 -9 -7 3 -15 -2 -18 -10 -4 -9 -12
-13 -20 -11 -8 4 -22 -10 -35 -34 -13 -23 -28 -38 -36 -35 -7 3 -30 -9 -51
-26 -38 -30 -41 -31 -115 -25 -252 22 -482 -135 -556 -380 -27 -88 -25 -281 4
-398 21 -83 49 -154 58 -145 2 3 -8 49 -22 104 -86 339 5 612 247 733 43 22
103 45 134 52 49 11 65 10 143 -9 l87 -22 16 21 c13 17 22 19 52 14 49 -9 91
1 83 21 -4 10 3 16 24 21 31 6 38 17 19 29 -8 4 -2 12 14 21 17 8 24 19 20 29
-3 9 -1 14 7 12 8 -2 13 9 14 30 1 35 -9 39 -37 17z"/>
<path d="M1983 1537 c-53 -26 -60 -45 -34 -96 16 -30 30 -42 56 -50 33 -9 155
-4 155 7 0 3 -7 13 -16 23 -9 10 -18 37 -21 61 -10 80 -56 98 -140 55z m102
-47 c8 -16 15 -35 15 -43 0 -15 -29 -27 -67 -27 -50 0 -74 72 -30 90 42 17 66
11 82 -20z"/>
<path d="M1704 1438 c-66 -63 -79 -84 -44 -73 15 5 18 3 14 -9 -5 -12 1 -16
22 -16 33 0 62 -15 51 -26 -4 -4 0 -16 9 -26 14 -14 14 -20 4 -33 -7 -9 -10
-18 -7 -22 4 -3 2 -12 -4 -19 -15 -18 -2 -34 27 -34 14 0 22 -4 19 -10 -14
-22 7 -28 45 -13 40 16 41 16 68 -10 34 -32 36 -33 63 -6 20 20 28 21 96 15
57 -5 74 -4 71 5 -2 7 -20 18 -39 25 -43 16 -25 17 38 3 40 -9 55 -9 86 5 35
14 38 19 35 48 -3 29 -10 36 -60 61 -48 25 -59 27 -80 16 -12 -6 -27 -18 -31
-25 -4 -8 -18 -14 -31 -14 -40 0 -137 39 -164 65 -13 14 -33 25 -43 25 -20 0
-25 15 -9 25 18 11 10 43 -19 74 -16 17 -34 31 -41 31 -6 0 -41 -28 -76 -62z"/>
<path d="M315 1162 l7 -63 -26 7 c-29 7 -33 -2 -12 -25 8 -9 24 -37 35 -64
l20 -47 -24 6 c-29 7 -29 7 -10 -41 12 -26 13 -40 5 -50 -8 -9 -2 -21 25 -48
38 -38 44 -57 19 -57 -11 0 -9 -8 12 -35 l26 -35 -23 0 -22 0 23 -25 c22 -23
22 -26 7 -43 -23 -26 -22 -31 13 -43 26 -9 28 -14 19 -31 -13 -25 -14 -24 52
-47 55 -19 58 -23 44 -74 l-7 -28 42 7 c42 7 43 6 36 -17 -24 -76 -20 -82 29
-49 35 23 49 25 42 7 -3 -8 -2 -19 2 -26 6 -8 18 0 41 26 20 22 35 33 38 25 2
-6 10 -12 18 -12 8 0 14 -5 14 -11 0 -7 10 -9 25 -5 20 5 27 2 37 -18 9 -21
14 -23 29 -15 24 12 26 44 3 35 -11 -4 -15 -2 -11 8 4 10 -8 18 -39 26 -25 7
-44 19 -44 26 0 17 -54 19 -99 3 -40 -14 -47 -8 -27 24 15 22 15 25 -4 42 -11
10 -20 25 -20 32 0 8 -22 39 -49 69 -91 103 -131 218 -132 379 0 119 -9 170
-29 170 -8 0 -32 18 -53 40 l-38 40 6 -63z"/>
<path d="M1925 1098 c-33 -11 -95 -22 -139 -24 -43 -2 -81 -6 -84 -8 -2 -3 7
-11 22 -17 20 -10 42 -9 97 1 100 17 194 45 192 56 -3 15 -25 13 -88 -8z"/>
<path d="M2226 1112 c-8 -13 17 -22 62 -22 25 0 33 3 26 10 -15 15 -80 24 -88
12z"/>
<path d="M1167 1066 c-70 -25 -90 -64 -22 -44 37 12 65 -1 65 -28 0 -8 9 -14
20 -14 11 0 20 -7 20 -15 0 -9 9 -15 21 -15 17 0 20 -4 15 -24 -4 -18 -1 -25
14 -29 15 -4 20 -14 20 -37 0 -23 4 -31 14 -27 10 4 13 -4 12 -31 -1 -31 2
-36 18 -34 16 3 18 -1 12 -35 -4 -21 -12 -50 -18 -66 -8 -20 -7 -31 2 -42 11
-13 9 -21 -8 -45 -12 -16 -22 -36 -22 -44 0 -9 -8 -20 -19 -25 -23 -13 -35
-42 -21 -51 13 -8 -3 -56 -28 -83 -15 -17 -15 -21 3 -53 21 -39 40 -47 111
-42 62 4 64 21 2 28 -26 3 -50 9 -53 12 -9 9 19 58 54 95 17 18 31 40 31 48 0
8 7 15 15 15 8 0 15 9 15 19 0 11 7 26 15 34 17 18 37 87 39 137 0 19 7 40 15
46 11 9 10 21 -3 75 -37 143 -117 244 -219 274 -61 18 -71 18 -120 1z"/>
<path d="M2265 1060 c-3 -6 0 -12 7 -14 7 -2 28 -9 47 -15 41 -13 41 -13 41
-2 0 5 -18 16 -40 25 -48 19 -47 19 -55 6z"/>
<path d="M2287 1003 c-30 -8 -8 -23 34 -23 42 0 53 14 17 24 -13 3 -25 5 -28
5 -3 -1 -13 -3 -23 -6z"/>
<path d="M888 364 c-5 -4 -8 -20 -8 -35 0 -25 3 -27 22 -20 26 9 36 31 15 31
-9 0 -17 7 -19 16 -2 9 -6 12 -10 8z"/>
<path d="M1680 336 c0 -7 71 -46 83 -46 20 1 -43 50 -64 50 -10 0 -19 -2 -19
-4z"/>
<path d="M1550 274 c0 -5 19 -18 43 -28 23 -11 45 -22 50 -24 19 -10 4 18 -17
31 -30 20 -76 32 -76 21z"/>
<path d="M1530 230 c0 -5 22 -21 50 -35 54 -27 64 -30 55 -15 -10 16 -105 62
-105 50z"/>
</g>
</svg>
